PathFileType  4	(X/Y/Z) C:\Users\antoi\Documents\MyRepositories\mobilecap\ResultsAnalysis
DataRate	CameraRate	NumFrames	NumMarkers	Units	OrigDataRate	OrigDataStartFrame	OrigNumFrames
100.0	100.0	4	55	mm	100.0	101	800
Frame#	Time	r_knee			r_shank_antsup			r_ankle			r_calc			r_5meta			r_toe			L_knee			L_shank_antsup			L_ankle			L_calc			L_5meta			L_toe			r_mknee			r_mankle			L_mknee			L_mankle			r_sh2			r_sh3			r_sh4			L_sh2			L_sh3			r_thigh1			r_thigh2			r_thigh3			r_thigh4			r_thigh5			L_thigh1			L_thigh2			L_thigh3			L_thigh4			r.ASIS			r.PSIS			L.ASIS			L.PSIS			C7			R_Shoulder			L_Shoulder			R_Sternum			L_Sternum			R_humerus			R_elbow_med			R_elbow_lat			R_forearm			R_wrist_radius			R_wrist_ulna			L_humerus			L_elbow_med			L_elbow_lat			L_forearm			L_wrist_radius			L_wrist_ulna			R_HJC			L_HJC			R_HJC_reg			L_HJC_reg			
		X1	Y1	Z1	X2	Y2	Z2	X3	Y3	Z3	X4	Y4	Z4	X5	Y5	Z5	X6	Y6	Z6	X7	Y7	Z7	X8	Y8	Z8	X9	Y9	Z9	X10	Y10	Z10	X11	Y11	Z11	X12	Y12	Z12	X13	Y13	Z13	X14	Y14	Z14	X15	Y15	Z15	X16	Y16	Z16	X17	Y17	Z17	X18	Y18	Z18	X19	Y19	Z19	X20	Y20	Z20	X21	Y21	Z21	X22	Y22	Z22	X23	Y23	Z23	X24	Y24	Z24	X25	Y25	Z25	X26	Y26	Z26	X27	Y27	Z27	X28	Y28	Z28	X29	Y29	Z29	X30	Y30	Z30	X31	Y31	Z31	X32	Y32	Z32	X33	Y33	Z33	X34	Y34	Z34	X35	Y35	Z35	X36	Y36	Z36	X37	Y37	Z37	X38	Y38	Z38	X39	Y39	Z39	X40	Y40	Z40	X41	Y41	Z41	X42	Y42	Z42	X43	Y43	Z43	X44	Y44	Z44	X45	Y45	Z45	X46	Y46	Z46	X47	Y47	Z47	X48	Y48	Z48	X49	Y49	Z49	X50	Y50	Z50	X51	Y51	Z51	X52	Y52	Z52	X53	Y53	Z53	X54	Y54	Z54	X55	Y55	Z55	

101	1.00000000	-214.97266	606.72455	-671.52031	-205.82529	464.34128	-662.69547	-286.83220	103.56913	-629.57634	-346.86239	72.38382	-689.35483	-151.54303	40.28761	-599.12291	-113.55044	64.67355	-652.99414	-239.64382	608.15186	-1113.89153	-205.82764	415.61805	-1122.28492	-294.74942	116.08106	-1160.28069	-349.91592	74.65529	-1102.38687	-150.73000	31.81671	-1194.69342	-112.33889	65.26128	-1136.26140	-235.04830	587.43983	-789.72293	-253.67980	128.41998	-727.80321	-232.31546	579.87279	-993.72751	-251.91443	125.59217	-1068.69191	-216.70171	351.72023	-655.14195	-267.92589	472.73112	-621.83299	-283.02263	362.68621	-606.09741	-276.95522	435.03116	-1169.83036	-292.74377	315.97210	-1169.56554	-136.00416	896.09253	-677.53860	-139.58234	785.35944	-671.09199	-203.34622	763.93912	-657.68968	-247.68069	901.13145	-695.40440	-252.43682	782.73921	-676.97409	-140.68277	894.34406	-1091.67396	-158.17363	761.67398	-1103.27024	-246.50201	913.55061	-1098.75182	-264.21924	776.30750	-1113.80339	-71.82333	1172.01935	-762.19405	-263.58371	1205.30413	-830.18795	-106.04494	1163.20993	-1034.07159	-274.56192	1208.16699	-921.47148	-270.36896	1679.09686	-893.52808	-188.07541	1659.58958	-722.05134	-223.65609	1666.27553	-1070.04678	-109.74917	1630.37638	-875.12208	-113.28378	1632.01210	-926.35063	-190.36359	1393.38080	-637.69878	-271.85225	1278.55360	-673.28144	-265.13489	1303.44183	-604.97498	-187.47237	1111.23733	-551.44984	-159.60071	1018.93126	-539.52278	-193.95546	1020.02319	-522.03357	-199.54627	1374.17545	-1138.46234	-276.58910	1294.25308	-1088.89929	-263.54506	1294.09765	-1162.45568	-182.57103	1108.94691	-1208.76514	-152.22445	1034.38022	-1211.20453	-181.30137	1033.85964	-1230.42437	-155.34559	1078.02008	-788.47373	-185.06651	1076.82589	-983.69716	-146.14927	1081.71190	-795.41942	-167.74491	1087.34355	-974.98633	
102	1.01000000	-214.92573	606.75483	-671.50208	-205.81520	464.34008	-662.68447	-286.82114	103.55327	-629.56912	-346.85270	72.39477	-689.37091	-151.53567	40.29017	-599.14806	-113.54659	64.67306	-652.97102	-239.62326	608.17916	-1113.92365	-205.81035	415.62620	-1122.28727	-294.72388	116.13089	-1160.33764	-349.90655	74.64606	-1102.39483	-150.73085	31.80877	-1194.69077	-112.35630	65.27837	-1136.28424	-235.03133	587.43775	-789.71446	-253.67242	128.46447	-727.83321	-232.31300	579.85202	-993.73049	-251.89963	125.58035	-1068.67841	-216.79972	351.88480	-655.11722	-267.89833	472.69913	-621.84364	-283.01133	362.68417	-606.09785	-276.95676	435.06133	-1169.86178	-292.78662	316.06320	-1169.60962	-135.96227	896.19937	-677.56080	-139.56456	785.35822	-671.10325	-203.32197	763.88585	-657.71350	-247.62468	901.11877	-695.45058	-252.41878	782.76740	-676.98190	-140.66918	894.33675	-1091.66324	-158.12239	761.61698	-1103.24496	-246.55619	913.72510	-1098.50929	-264.19529	776.33922	-1113.82484	-71.81138	1172.01964	-762.19126	-263.55658	1205.29904	-830.19015	-106.08521	1163.15631	-1034.17225	-274.53947	1208.13451	-921.45807	-270.38002	1679.09211	-893.50981	-188.02152	1659.55457	-722.08286	-223.70494	1666.28650	-1070.04864	-109.77041	1630.36427	-875.15754	-113.31383	1631.98782	-926.37650	-190.32914	1393.37188	-637.65747	-271.81587	1278.49071	-673.13348	-265.10036	1303.43938	-604.98642	-187.37018	1111.23023	-551.37239	-159.53759	1018.95942	-539.37215	-193.87367	1020.04525	-521.92305	-199.60632	1374.20984	-1138.48613	-276.63135	1294.27333	-1088.89963	-263.60195	1294.13749	-1162.44793	-182.65131	1109.00331	-1208.89588	-152.36905	1034.37589	-1211.27671	-181.42467	1033.84975	-1230.46354	-155.32306	1078.01392	-788.48116	-185.08968	1076.78597	-983.69743	-146.15818	1081.68708	-795.40268	-167.77546	1087.26803	-975.04230	
103	1.02000000	-214.81922	606.77975	-671.45450	-205.80422	464.33068	-662.67217	-286.80368	103.62843	-629.57261	-346.81449	72.42745	-689.42322	-151.52226	40.28666	-599.17979	-113.54352	64.66522	-652.91989	-239.63758	608.14892	-1113.87447	-205.82084	415.62288	-1122.29843	-294.71689	116.18483	-1160.36438	-349.91988	74.63529	-1102.38309	-150.73327	31.79857	-1194.68861	-112.37370	65.30906	-1136.31343	-235.01886	587.43385	-789.71189	-253.65922	128.53667	-727.89302	-232.35271	579.86713	-993.62382	-251.90201	125.58539	-1068.68589	-216.88369	352.00203	-655.07410	-267.83089	472.58361	-621.90429	-282.99893	362.68063	-606.09678	-276.97853	435.07792	-1169.90984	-292.78728	316.06993	-1169.61362	-136.17191	896.98696	-677.54141	-139.55963	785.36683	-671.09505	-203.27546	763.87309	-657.69963	-247.55017	901.12267	-695.47313	-252.40606	782.74728	-676.98318	-140.65681	894.33681	-1091.65774	-158.08708	761.57769	-1103.23062	-246.67193	914.06216	-1098.11415	-264.19388	776.37290	-1113.83468	-71.80331	1172.00737	-762.18879	-263.53266	1205.28072	-830.19836	-106.05017	1163.16328	-1034.13036	-274.51263	1208.10085	-921.40592	-270.41123	1679.07262	-893.45685	-187.99976	1659.53665	-722.08250	-223.74132	1666.28204	-1070.04526	-109.79238	1630.34887	-875.18486	-113.33746	1631.98310	-926.39294	-190.25425	1393.35049	-637.65287	-271.78806	1278.40641	-673.06626	-265.04359	1303.40817	-605.01069	-187.27821	1111.22628	-551.28045	-159.33940	1018.95485	-539.35118	-193.73798	1020.12795	-521.73547	-199.66802	1374.21243	-1138.51620	-276.67286	1294.26589	-1088.87987	-263.65985	1294.18461	-1162.44367	-182.74126	1109.04897	-1209.00510	-152.49582	1034.37708	-1211.29761	-181.56366	1033.83419	-1230.47917	-155.29116	1077.99603	-788.46506	-185.04990	1076.77710	-983.68259	-146.13236	1081.71505	-795.37888	-167.75474	1087.26860	-974.99009	
104	1.03000000	-214.81916	606.74802	-671.49067	-205.78433	464.32337	-662.66146	-286.79480	103.71089	-629.58367	-346.78935	72.46282	-689.47205	-151.50912	40.27094	-599.19687	-113.54127	64.65039	-652.88813	-239.66091	608.10755	-1113.84046	-205.84891	415.61819	-1122.31178	-294.74287	116.16491	-1160.33242	-349.94296	74.61650	-1102.39558	-150.73736	31.78782	-1194.68831	-112.38168	65.33033	-1136.33211	-234.99797	587.42394	-789.70328	-253.65094	128.55139	-727.91087	-232.40168	579.88732	-993.54395	-251.91474	125.57234	-1068.69806	-216.87168	352.00427	-655.04408	-267.75731	472.44875	-621.98593	-282.99184	362.67731	-606.10051	-277.01555	435.07688	-1169.93655	-292.78187	316.01588	-1169.59390	-136.28734	897.55850	-677.53018	-139.54772	785.36857	-671.07696	-203.25012	763.90031	-657.64823	-247.52165	901.12768	-695.46898	-252.40491	782.68719	-676.97834	-140.64840	894.34112	-1091.65737	-158.06069	761.60061	-1103.25338	-246.73914	914.26752	-1097.92626	-264.19666	776.38453	-1113.83510	-71.79546	1171.97696	-762.19565	-263.51661	1205.26317	-830.20952	-105.97515	1163.23723	-1033.99096	-274.49887	1208.09576	-921.38194	-270.44610	1679.05377	-893.41903	-188.01834	1659.52060	-722.06282	-223.79090	1666.27373	-1070.03828	-109.80799	1630.34470	-875.20322	-113.35236	1631.98062	-926.38922	-190.14909	1393.32193	-637.69161	-271.77713	1278.36184	-673.01827	-264.92704	1303.41806	-604.95760	-187.19030	1111.22115	-551.19614	-159.07057	1018.92985	-539.47624	-193.54238	1020.28053	-521.51593	-199.72542	1374.20940	-1138.54511	-276.73108	1294.26732	-1088.88669	-263.72249	1294.20188	-1162.45997	-182.84226	1109.06754	-1209.08342	-152.61759	1034.37865	-1211.31965	-181.69694	1033.83001	-1230.51455	-155.27227	1077.97169	-788.45927	-184.97927	1076.81400	-983.68505	-146.08683	1081.77176	-795.37153	-167.70941	1087.34873	-974.87772	
